<svg width="449" height="82" viewBox="0 0 449 82" fill="none" xmlns="http://www.w3.org/2000/svg">
<g clip-path="url(#clip0_290_10746)">
<g clip-path="url(#clip1_290_10746)">
<path d="M106.552 67.1934C106.062 67.1934 105.645 67.022 105.303 66.6775C104.959 66.3346 104.788 65.9185 104.788 65.4275V17.4471C104.788 16.9561 104.959 16.54 105.303 16.1955C105.645 15.8526 106.062 15.6812 106.552 15.6812H113.458C113.997 15.6812 114.425 15.8526 114.744 16.1955C115.062 16.54 115.221 16.9561 115.221 17.4471V65.4275C115.221 65.9185 115.062 66.3346 114.744 66.6775C114.425 67.022 113.997 67.1934 113.458 67.1934H106.552Z" fill="#001C39"/>
<path d="M129.476 67.1923C128.986 67.1923 128.569 67.0209 128.226 66.6764C127.883 66.3335 127.712 65.9174 127.712 65.4264V30.691C127.712 30.2017 127.883 29.7839 128.226 29.4411C128.569 29.0982 128.986 28.9251 129.476 28.9251H135.5C135.989 28.9251 136.406 29.0982 136.749 29.4411C137.091 29.7839 137.263 30.2017 137.263 30.691V33.7085C138.536 32.139 140.166 30.8275 142.15 29.7723C144.133 28.7171 146.595 28.1895 149.534 28.1895C152.52 28.1895 155.117 28.8652 157.321 30.2133C159.525 31.5631 161.227 33.4638 162.428 35.9171C163.627 38.3704 164.228 41.313 164.228 44.7466V65.4264C164.228 65.9174 164.055 66.3335 163.714 66.6763C163.37 67.0208 162.953 67.1923 162.464 67.1923H155.999C155.509 67.1923 155.092 67.0208 154.75 66.6763C154.406 66.3335 154.235 65.9174 154.235 65.4264V45.1893C154.235 42.3433 153.537 40.1113 152.142 38.4919C150.746 36.8725 148.725 36.0636 146.08 36.0636C143.533 36.0636 141.5 36.8725 139.982 38.4919C138.463 40.1113 137.705 42.3433 137.705 45.1893V65.4264C137.705 65.9174 137.532 66.3335 137.19 66.6763C136.847 67.0208 136.43 67.1923 135.941 67.1923H129.476V67.1923Z" fill="#001C39"/>
<path d="M189.869 67.928C186.93 67.928 184.419 67.5835 182.338 66.8978C180.255 66.2104 178.554 65.3516 177.232 64.3213C175.909 63.291 174.928 62.2608 174.293 61.2306C173.656 60.2003 173.312 59.3432 173.264 58.6558C173.214 58.1166 173.375 57.6871 173.742 57.3676C174.109 57.0497 174.513 56.8899 174.954 56.8899H180.759C180.954 56.8899 181.126 56.9149 181.273 56.9631C181.42 57.0131 181.614 57.1595 181.86 57.4042C182.497 57.9451 183.171 58.5077 183.881 59.0968C184.59 59.686 185.435 60.1887 186.416 60.6064C187.395 61.0225 188.62 61.2305 190.089 61.2305C191.999 61.2305 193.604 60.8511 194.901 60.0904C196.199 59.3298 196.849 58.2396 196.849 56.8149C196.849 55.7847 196.566 54.9525 196.004 54.3134C195.44 53.6759 194.399 53.1001 192.881 52.5841C191.362 52.0698 189.207 51.5173 186.416 50.9281C183.671 50.2923 181.394 49.4817 179.583 48.4997C177.77 47.5194 176.423 46.2928 175.542 44.8215C174.66 43.3485 174.219 41.6326 174.219 39.6703C174.219 37.7562 174.795 35.9288 175.946 34.1878C177.096 32.4469 178.811 31.0105 181.089 29.8821C183.367 28.7537 186.195 28.1895 189.575 28.1895C192.22 28.1895 194.522 28.5207 196.481 29.1831C198.44 29.8455 200.068 30.6677 201.367 31.648C202.664 32.63 203.656 33.6236 204.342 34.6289C205.028 35.6342 205.395 36.5047 205.445 37.2403C205.493 37.7813 205.346 38.2106 205.004 38.5285C204.661 38.8481 204.269 39.0079 203.828 39.0079H198.392C198.146 39.0079 197.926 38.9596 197.73 38.8598C197.534 38.7615 197.337 38.6384 197.142 38.4919C196.603 38.0026 196.016 37.475 195.379 36.9091C194.742 36.3466 193.971 35.8689 193.065 35.4744C192.158 35.0833 190.971 34.8869 189.502 34.8869C187.64 34.8869 186.219 35.2914 185.24 36.1002C184.26 36.9091 183.77 37.9294 183.77 39.1544C183.77 39.9899 184.002 40.7122 184.468 41.3247C184.934 41.9389 185.876 42.5147 187.297 43.054C188.717 43.5949 190.872 44.1591 193.763 44.7466C197.044 45.3358 199.652 46.208 201.587 47.3597C203.522 48.5131 204.894 49.8379 205.702 51.3342C206.51 52.8305 206.914 54.4865 206.914 56.3007C206.914 58.5076 206.264 60.4949 204.967 62.2608C203.669 64.0284 201.758 65.4148 199.237 66.4184C196.713 67.4237 193.59 67.928 189.869 67.928Z" fill="#001C39"/>
<path d="M218.155 81.1747C217.664 81.1747 217.248 81.0016 216.906 80.6587C216.563 80.3142 216.392 79.8981 216.392 79.4071V30.691C216.392 30.2017 216.563 29.7839 216.906 29.4411C217.248 29.0982 217.664 28.9251 218.155 28.9251H223.959C224.497 28.9251 224.925 29.0982 225.244 29.4411C225.563 29.7839 225.722 30.2017 225.722 30.691V33.6353C226.898 32.0658 228.441 30.7659 230.351 29.7357C232.261 28.7054 234.636 28.1895 237.478 28.1895C240.073 28.1895 242.327 28.6072 244.237 29.4411C246.148 30.2749 247.739 31.4649 249.013 33.0095C250.286 34.5557 251.265 36.3831 251.951 38.4919C252.637 40.6023 253.028 42.9325 253.127 45.4823C253.175 46.3178 253.201 47.1749 253.201 48.0587C253.201 48.9425 253.175 49.8246 253.127 50.7084C253.078 53.1617 252.711 55.4302 252.025 57.5157C251.339 59.6011 250.347 61.4153 249.05 62.9599C247.751 64.5061 246.148 65.7194 244.237 66.6032C242.327 67.4869 240.073 67.928 237.478 67.928C234.832 67.928 232.579 67.4503 230.718 66.4933C228.856 65.5363 227.339 64.273 226.163 62.7035V79.4071C226.163 79.8981 226.004 80.3142 225.685 80.6588C225.366 81.0016 224.939 81.1747 224.4 81.1747H218.155V81.1747ZM234.759 60.0538C236.865 60.0538 238.506 59.6011 239.682 58.6923C240.858 57.7853 241.713 56.5952 242.254 55.1239C242.792 53.651 243.11 52.0332 243.208 50.2657C243.256 48.7944 243.256 47.323 243.208 45.8517C243.11 44.0842 242.792 42.4664 242.254 40.9935C241.713 39.5222 240.858 38.3338 239.682 37.4251C238.506 36.518 236.865 36.0636 234.759 36.0636C232.75 36.0636 231.123 36.5296 229.874 37.4617C228.624 38.3937 227.718 39.5837 227.155 41.03C226.591 42.478 226.26 43.9627 226.163 45.4822C226.113 46.366 226.089 47.2981 226.089 48.2801C226.089 49.262 226.113 50.2174 226.163 51.1494C226.211 52.6207 226.555 54.0321 227.192 55.3803C227.827 56.73 228.759 57.8452 229.984 58.729C231.207 59.6128 232.799 60.0538 234.759 60.0538Z" fill="#001C39"/>
<path d="M279.723 67.9279C274.287 67.9279 269.975 66.3584 266.792 63.2178C263.608 60.0788 261.894 55.6149 261.649 49.8246C261.6 49.3353 261.576 48.7095 261.576 47.9489C261.576 47.1883 261.6 46.5874 261.649 46.1447C261.845 42.4181 262.69 39.2159 264.184 36.5413C265.677 33.8683 267.748 31.8078 270.393 30.3598C273.037 28.9134 276.147 28.1895 279.723 28.1895C283.691 28.1895 287.021 29.0116 289.716 30.6544C292.408 32.2988 294.442 34.5806 295.813 37.4983C297.184 40.4175 297.871 43.7912 297.871 47.6176V49.1622C297.871 49.6532 297.699 50.0709 297.356 50.4138C297.013 50.7567 296.573 50.9281 296.034 50.9281H271.641C271.641 51.2227 271.641 51.4191 271.641 51.5173C271.689 53.2349 272.02 54.8177 272.633 56.264C273.245 57.712 274.151 58.8771 275.352 59.7592C276.552 60.643 277.984 61.0841 279.65 61.0841C281.021 61.0841 282.172 60.876 283.103 60.4582C284.033 60.0422 284.793 59.5645 285.38 59.0236C285.968 58.4843 286.384 58.0432 286.63 57.6987C287.07 57.1095 287.425 56.755 287.695 56.6319C287.963 56.5104 288.368 56.4471 288.907 56.4471H295.226C295.715 56.4471 296.119 56.5953 296.438 56.8899C296.756 57.1844 296.89 57.5523 296.842 57.9933C296.793 58.7789 296.389 59.7359 295.63 60.8627C294.87 61.9928 293.78 63.0963 292.36 64.1748C290.94 65.255 289.165 66.1504 287.034 66.8611C284.903 67.5718 282.466 67.9279 279.723 67.9279ZM271.641 44.7466H287.879V44.5269C287.879 42.6129 287.56 40.9336 286.924 39.4856C286.287 38.0392 285.355 36.9091 284.132 36.1002C282.907 35.2913 281.437 34.8869 279.723 34.8869C278.008 34.8869 276.539 35.2913 275.315 36.1002C274.09 36.9091 273.172 38.0392 272.56 39.4856C271.947 40.9336 271.641 42.6129 271.641 44.5269V44.7466Z" fill="#001C39"/>
<path d="M309.333 67.1929C308.842 67.1929 308.426 67.0215 308.084 66.677C307.741 66.3341 307.57 65.918 307.57 65.4271V16.7109C307.57 16.2199 307.741 15.8022 308.084 15.4593C308.426 15.1164 308.842 14.9434 309.333 14.9434H315.284C315.822 14.9434 316.25 15.1164 316.569 15.4593C316.888 15.8022 317.047 16.2199 317.047 16.7109V41.8779L329.39 30.1774C329.88 29.7846 330.283 29.4783 330.603 29.257C330.921 29.0356 331.423 28.9257 332.109 28.9257H338.942C339.431 28.9257 339.823 29.0739 340.117 29.3668C340.412 29.6614 340.558 30.0558 340.558 30.5452C340.558 30.7416 340.509 30.9629 340.412 31.2076C340.313 31.4539 340.117 31.6736 339.823 31.87L324.688 46.072L341.66 64.3219C342.149 64.8129 342.395 65.2306 342.395 65.5735C342.395 66.0645 342.235 66.4572 341.917 66.7502C341.598 67.0448 341.219 67.1929 340.779 67.1929H333.799C333.064 67.1929 332.537 67.0814 332.219 66.8617C331.9 66.6403 331.521 66.3341 331.08 65.9413L317.047 51.15V65.427C317.047 65.918 316.888 66.3341 316.569 66.6769C316.25 67.0214 315.822 67.1929 315.284 67.1929H309.333V67.1929Z" fill="#001C39"/>
<path d="M367.007 67.1929C364.068 67.1929 361.594 66.677 359.587 65.6467C357.578 64.6165 356.084 63.0836 355.105 61.0481C354.125 59.0126 353.635 56.4744 353.635 53.4319V36.7267H347.831C347.341 36.7267 346.924 36.5552 346.582 36.2107C346.239 35.8695 346.068 35.4268 346.068 34.8875V30.6916C346.068 30.2023 346.239 29.7845 346.582 29.4417C346.924 29.0988 347.341 28.9257 347.831 28.9257H353.635V16.7109C353.635 16.2199 353.794 15.8022 354.113 15.4593C354.431 15.1164 354.859 14.9434 355.398 14.9434H361.35C361.839 14.9434 362.255 15.1164 362.598 15.4593C362.941 15.8022 363.113 16.2199 363.113 16.7109V28.9257H372.297C372.786 28.9257 373.203 29.0988 373.546 29.4417C373.888 29.7846 374.06 30.2023 374.06 30.6916V34.8875C374.06 35.4268 373.888 35.8695 373.546 36.2107C373.203 36.5552 372.786 36.7267 372.297 36.7267H363.113V52.6946C363.113 54.7069 363.468 56.2764 364.179 57.4048C364.888 58.5349 366.125 59.0974 367.889 59.0974H372.958C373.448 59.0974 373.864 59.2705 374.207 59.6134C374.549 59.9563 374.721 60.374 374.721 60.8633V65.427C374.721 65.918 374.549 66.3341 374.207 66.6769C373.864 67.0215 373.448 67.1929 372.958 67.1929H367.007V67.1929Z" fill="#001C39"/>
<path d="M386.329 67.1925C385.839 67.1925 385.422 67.0211 385.079 66.6766C384.736 66.3337 384.565 65.9176 384.565 65.4266V30.7661C384.565 30.2269 384.736 29.7841 385.079 29.4413C385.422 29.0984 385.839 28.9253 386.329 28.9253H392.279C392.769 28.9253 393.198 29.0984 393.566 29.4413C393.933 29.7841 394.117 30.2269 394.117 30.7661V33.7819C395.243 32.2124 396.7 31.0107 398.488 30.1769C400.276 29.3431 402.345 28.9253 404.697 28.9253H407.709C408.248 28.9253 408.676 29.0984 408.995 29.4412C409.313 29.7841 409.472 30.2019 409.472 30.6912V35.9905C409.472 36.4815 409.313 36.8993 408.995 37.2405C408.676 37.585 408.248 37.7564 407.709 37.7564H401.978C399.627 37.7564 397.801 38.4072 396.504 39.7071C395.206 41.0069 394.558 42.8344 394.558 45.1895V65.4266C394.558 65.9176 394.385 66.3336 394.043 66.6765C393.7 67.021 393.259 67.1925 392.721 67.1925H386.329V67.1925Z" fill="#001C39"/>
<path d="M427.547 67.928C424.999 67.928 422.698 67.4237 420.641 66.4184C418.584 65.4148 416.954 64.065 415.754 62.3723C414.554 60.6796 413.955 58.7789 413.955 56.6685C413.955 53.2349 415.351 50.5003 418.142 48.4631C420.935 46.4276 424.583 45.0662 429.09 44.3788L439.155 42.9075V41.3613C439.155 39.3008 438.641 37.708 437.613 36.5779C436.584 35.4511 434.821 34.8869 432.323 34.8869C430.559 34.8869 429.126 35.243 428.025 35.9537C426.922 36.6644 426.102 37.6081 425.564 38.7865C425.171 39.4239 424.608 39.7435 423.874 39.7435H418.069C417.529 39.7435 417.125 39.5954 416.857 39.3008C416.587 39.0078 416.452 38.615 416.452 38.1241C416.501 37.3402 416.831 36.3831 417.444 35.2547C418.057 34.1263 418.987 33.0344 420.236 31.9792C421.486 30.9257 423.113 30.0286 425.122 29.2929C427.13 28.5573 429.555 28.1895 432.396 28.1895C435.481 28.1895 438.09 28.5706 440.221 29.3296C442.352 30.0919 444.053 31.1088 445.327 32.3837C446.6 33.6602 447.531 35.1565 448.119 36.8725C448.707 38.5901 449 40.4059 449 42.3183V65.4264C449 65.9174 448.828 66.3335 448.486 66.6763C448.143 67.0208 447.727 67.1923 447.237 67.1923H441.286C440.747 67.1923 440.319 67.0208 440.001 66.6763C439.681 66.3335 439.523 65.9174 439.523 65.4264V62.5554C438.885 63.4391 438.028 64.2979 436.951 65.1318C435.874 65.9656 434.563 66.6397 433.021 67.1557C431.478 67.67 429.652 67.928 427.547 67.928ZM430.045 60.9376C431.759 60.9376 433.315 60.5681 434.71 59.8325C436.106 59.0969 437.209 57.9568 438.016 56.4106C438.825 54.866 439.229 52.9154 439.229 50.5603V49.0158L431.881 50.1925C428.991 50.6335 426.836 51.3459 425.416 52.3262C423.995 53.3082 423.285 54.5098 423.285 55.9329C423.285 57.013 423.616 57.9318 424.277 58.6924C424.939 59.453 425.784 60.0172 426.812 60.3851C427.841 60.7529 428.918 60.9376 430.045 60.9376Z" fill="#001C39"/>
<path d="M67.7869 21.4126C68.3351 20.713 69.4566 21.1016 69.4566 21.9909L69.4565 31.0592C69.4565 75.7312 34.7283 81.1731 34.7283 81.1731C34.7283 81.1731 0 75.7312 0 31.0592V13.1638C0 10.2933 1.68073 7.68364 4.29638 6.51051C21.7172 -1.30269 41.4041 -2.08375 59.2791 4.16878C62.0518 5.13868 62.9384 8.62611 60.943 10.7845L34.1814 39.7314L16.3581 31.0943C14.011 29.957 11.7304 32.7604 13.3212 34.8295C19.827 43.2916 29.0854 55.3353 32.7642 60.1126C33.9454 61.6465 36.2504 61.6557 37.4445 60.1319C42.564 53.5991 55.2501 37.4112 67.7869 21.4126Z" fill="#009BD5"/>
</g>
</g>
<defs>
<clipPath id="clip0_290_10746">
<rect width="449" height="81.1751" fill="white"/>
</clipPath>
<clipPath id="clip1_290_10746">
<rect width="449" height="81.1751" fill="white"/>
</clipPath>
</defs>
</svg>
